<svg width="24" height="24" viewBox="0 0 24 24" fill="none" xmlns="http://www.w3.org/2000/svg">
<path d="M9.86231 16.5746H14.1377M12 3.76569V4.68061M17.8225 6.17746L17.1756 6.82441M20.2344 11.9999H19.3194M4.68067 11.9999H3.76575M6.82442 6.82441L6.17747 6.17746M8.76526 15.2348C6.97877 13.4483 6.97877 10.5518 8.76526 8.76527C10.5518 6.97877 13.4482 6.97877 15.2347 8.76527C17.0212 10.5518 17.0212 13.4483 15.2347 15.2348L14.7342 15.7353C14.1552 16.3144 13.8299 17.0997 13.8299 17.9186V18.4045C13.8299 19.4151 13.0106 20.2343 12 20.2343C10.9894 20.2343 10.1702 19.4151 10.1702 18.4045V17.9186C10.1702 17.0997 9.84486 16.3144 9.26582 15.7353L8.76526 15.2348Z" stroke="#419EFF" stroke-width="1.5" stroke-linecap="round" stroke-linejoin="round"/>
</svg>
