<svg width="24" height="24" viewBox="0 0 24 24" fill="none" xmlns="http://www.w3.org/2000/svg">
<path d="M11.9998 7.83366C12.4582 7.83366 12.8332 8.20866 12.8332 8.66699V12.0003C12.8332 12.4587 12.4582 12.8337 11.9998 12.8337C11.5415 12.8337 11.1665 12.4587 11.1665 12.0003V8.66699C11.1665 8.20866 11.5415 7.83366 11.9998 7.83366ZM11.9915 3.66699C7.3915 3.66699 3.6665 7.40033 3.6665 12.0003C3.6665 16.6003 7.3915 20.3337 11.9915 20.3337C16.5998 20.3337 20.3332 16.6003 20.3332 12.0003C20.3332 7.40033 16.5998 3.66699 11.9915 3.66699ZM11.9998 18.667C8.3165 18.667 5.33317 15.6837 5.33317 12.0003C5.33317 8.31699 8.3165 5.33366 11.9998 5.33366C15.6832 5.33366 18.6665 8.31699 18.6665 12.0003C18.6665 15.6837 15.6832 18.667 11.9998 18.667ZM12.8332 16.167H11.1665V14.5003H12.8332V16.167Z" fill="#333333"/>
</svg>
