<svg width="24" height="24" viewBox="0 0 24 24" fill="none" xmlns="http://www.w3.org/2000/svg">
<path fill-rule="evenodd" clip-rule="evenodd" d="M17.25 4.25V17.75H18.75V4.25H17.25ZM15.75 3.875C15.75 3.25368 16.2537 2.75 16.875 2.75H19.125C19.7463 2.75 20.25 3.25368 20.25 3.875V18.125C20.25 18.7463 19.7463 19.25 19.125 19.25H16.875C16.2537 19.25 15.75 18.7463 15.75 18.125V3.875Z" fill="#419EFF"/>
<path fill-rule="evenodd" clip-rule="evenodd" d="M11.25 8V17.75H12.75V8H11.25ZM9.75 7.625C9.75 7.00368 10.2537 6.5 10.875 6.5H13.125C13.7463 6.5 14.25 7.00368 14.25 7.625V18.125C14.25 18.7463 13.7463 19.25 13.125 19.25H10.875C10.2537 19.25 9.75 18.7463 9.75 18.125V7.625Z" fill="#419EFF"/>
<path fill-rule="evenodd" clip-rule="evenodd" d="M5.25 11V17.75H6.75V11H5.25ZM3.75 10.625C3.75 10.0037 4.25368 9.5 4.875 9.5H7.125C7.74632 9.5 8.25 10.0037 8.25 10.625V18.125C8.25 18.7463 7.74632 19.25 7.125 19.25H4.875C4.25368 19.25 3.75 18.7463 3.75 18.125V10.625Z" fill="#419EFF"/>
</svg>
