<svg width="20" height="21" viewBox="0 0 20 21" fill="none" xmlns="http://www.w3.org/2000/svg">
<g clip-path="url(#clip0_56_1288)">
<path d="M10 7.16634C10.9167 7.16634 11.6667 6.41634 11.6667 5.49967C11.6667 4.58301 10.9167 3.83301 10 3.83301C9.08337 3.83301 8.33337 4.58301 8.33337 5.49967C8.33337 6.41634 9.08337 7.16634 10 7.16634ZM10 8.83301C9.08337 8.83301 8.33337 9.58301 8.33337 10.4997C8.33337 11.4163 9.08337 12.1663 10 12.1663C10.9167 12.1663 11.6667 11.4163 11.6667 10.4997C11.6667 9.58301 10.9167 8.83301 10 8.83301ZM10 13.833C9.08337 13.833 8.33337 14.583 8.33337 15.4997C8.33337 16.4163 9.08337 17.1663 10 17.1663C10.9167 17.1663 11.6667 16.4163 11.6667 15.4997C11.6667 14.583 10.9167 13.833 10 13.833Z" fill="#999999"/>
</g>
<defs>
<clipPath id="clip0_56_1288">
<rect width="20" height="20" fill="white" transform="translate(0 0.5)"/>
</clipPath>
</defs>
</svg>
