<svg width="26" height="26" viewBox="0 0 26 26" fill="none" xmlns="http://www.w3.org/2000/svg">
<circle cx="10" cy="13" r="9" stroke="black" stroke-width="2"/>
<path d="M13.2033 4.443C14.0836 4.15547 15.0237 4 16 4C20.9706 4 25 8.02944 25 13C25 17.9706 20.9706 22 16 22C15.0237 22 14.0836 21.8445 13.2033 21.557" stroke="black" stroke-width="2"/>
<path fill-rule="evenodd" clip-rule="evenodd" d="M9.19996 8.10777V7.75C9.19996 7.33579 9.53575 7 9.94996 7C10.3642 7 10.7 7.33579 10.7 7.75V8.0827C11.4721 8.26812 12.1696 8.75789 12.598 9.4999C12.8742 9.97819 12.7103 10.5898 12.232 10.8659C11.7537 11.1421 11.1421 10.9782 10.866 10.4999C10.5898 10.0216 9.97824 9.85773 9.49995 10.1339C9.02166 10.41 8.85778 11.0216 9.13393 11.4999C9.31835 11.8193 9.6526 11.9999 10.0009 12.0002C10.021 12.0003 10.0409 12.0009 10.0607 12.002C10.8067 12.0171 11.5511 12.31 12.1213 12.8801C13.2928 14.0517 13.2928 15.9512 12.1213 17.1228C11.7409 17.5031 11.2839 17.7599 10.7999 17.8933V18.25C10.7999 18.6642 10.4641 19 10.0499 19C9.63572 19 9.29994 18.6642 9.29994 18.25V17.9191C8.77908 17.7946 8.28505 17.5292 7.87863 17.1228C7.4881 16.7322 7.4881 16.0991 7.87863 15.7085C8.26915 15.318 8.90232 15.318 9.29284 15.7085C9.68336 16.0991 10.3165 16.0991 10.7071 15.7085C11.0976 15.318 11.0976 14.6848 10.7071 14.2943C10.5108 14.0981 10.2554 14.0006 9.99686 14.0014C9.97379 14.0015 9.95089 14.0008 9.9282 13.9993C8.92032 13.9745 7.94495 13.4405 7.40188 12.4999C6.57345 11.065 7.06507 9.23025 8.49995 8.40182C8.72524 8.27175 8.96039 8.17422 9.19996 8.10777Z" fill="#111111"/>
</svg>
