<svg width="24" height="24" viewBox="0 0 24 24" fill="none" xmlns="http://www.w3.org/2000/svg">
<path d="M11.3597 11.2417L16.8398 16.7217C17.3279 17.2099 17.3279 18.0014 16.8398 18.4895V18.4895C16.3516 18.9777 15.5602 18.9777 15.072 18.4895L9.59192 13.0094" stroke="#419EFF" stroke-width="1.5" stroke-linecap="round"/>
<path d="M5.08891 5.19417C5.15057 5.13251 5.25055 5.13251 5.31221 5.19417L9.4432 9.32516C9.63846 9.52042 9.63846 9.837 9.4432 10.0323L7.91734 11.5581C7.78374 11.6917 7.56713 11.6917 7.43353 11.5581L5.08891 9.21351C3.979 8.1036 3.979 6.30408 5.08891 5.19417V5.19417Z" stroke="#419EFF" stroke-width="1.5" stroke-linejoin="round"/>
<path d="M17.6013 4.99998L18.8741 6.27277L17.9548 10.3033L14.4193 11.7175L7.55025 17.5966L6.64111 17.3743L6.41887 16.4652L12.6515 9.24262L13.3586 5.70708L17.6013 4.99998Z" fill="white"/>
<path fill-rule="evenodd" clip-rule="evenodd" d="M14.0946 6.3853C15.3663 5.11359 17.1125 5.09509 18.0087 5.99129C18.9049 6.88748 18.8864 8.63362 17.6147 9.90533C16.756 10.764 15.638 11.0641 14.7449 10.8644C14.6752 10.8488 14.6069 10.8302 14.5401 10.8087C14.2103 10.7023 13.8606 10.8364 13.6807 11.1138C13.5886 11.1504 13.5024 11.206 13.4279 11.2805L6.69901 18.0093C6.50375 18.2046 6.18717 18.2046 5.9919 18.0093C5.79664 17.814 5.79664 17.4975 5.9919 17.3022L12.7208 10.5733C12.796 10.4981 12.8519 10.4109 12.8885 10.3178C13.1644 10.1373 13.2974 9.78869 13.1913 9.45985C13.1718 9.39939 13.1547 9.33766 13.14 9.27477C12.9315 8.37854 13.2295 7.25048 14.0946 6.3853ZM11.6573 9.51544C11.3639 8.08621 11.8698 6.48883 13.034 5.32464C14.7273 3.63129 17.4357 3.29698 19.0693 4.93063C20.703 6.56428 20.3687 9.27264 18.6753 10.966C17.5115 12.1298 15.9152 12.6355 14.4866 12.343L7.75967 19.07C6.97862 19.851 5.71229 19.851 4.93124 19.07C4.1502 18.2889 4.1502 17.0226 4.93124 16.2415L11.6573 9.51544Z" fill="#419EFF"/>
</svg>
