<svg width="20" height="20" viewBox="0 0 20 20" fill="none" xmlns="http://www.w3.org/2000/svg">
<path d="M9.16675 12.5003H10.8334V14.167H9.16675V12.5003ZM9.16675 5.83366H10.8334V10.8337H9.16675V5.83366ZM9.99175 1.66699C5.39175 1.66699 1.66675 5.40033 1.66675 10.0003C1.66675 14.6003 5.39175 18.3337 9.99175 18.3337C14.6001 18.3337 18.3334 14.6003 18.3334 10.0003C18.3334 5.40033 14.6001 1.66699 9.99175 1.66699ZM10.0001 16.667C6.31675 16.667 3.33341 13.6837 3.33341 10.0003C3.33341 6.31699 6.31675 3.33366 10.0001 3.33366C13.6834 3.33366 16.6667 6.31699 16.6667 10.0003C16.6667 13.6837 13.6834 16.667 10.0001 16.667Z" fill="#EF8743"/>
</svg>
